<?xml version="1.0" encoding="UTF-8" standalone="no"?>
<!-- Created by diasvg.py -->
<svg width="35.095cm" height="24.538cm" viewBox="23.950 7.112 59.045 31.650"
 xmlns="http://www.w3.org/2000/svg"
 xmlns:xlink="http://www.w3.org/1999/xlink">
<rect x="29.000" y="13.000" width="11.280" height="2.800" fill="#FFFFFF" stroke="none" stroke-width="0"/>
<rect x="29.000" y="13.000" width="11.280" height="2.800" fill="none" stroke="#000000" stroke-width="0.100" />
<text x="34.640" y="13.950"  fill="#000000" text-anchor="middle" font-size="1.00" font-family="sans" font-style="normal" font-weight="700">
Customer</text>
<text x="34.640" y="14.725"  fill="#000000" text-anchor="middle" font-size="0.70" font-family="sans" font-style="normal" font-weight="400">
Main customer</text>
<text x="34.640" y="15.425"  fill="#000000" text-anchor="middle" font-size="0.70" font-family="sans" font-style="normal" font-weight="400">
class</text>
<rect x="29.000" y="15.800" width="11.280" height="1.000" fill="#FFFFFF" stroke="none" stroke-width="0"/>
<rect x="29.000" y="15.800" width="11.280" height="1.000" fill="none" stroke="#000000" stroke-width="0.100" />
<text x="29.150" y="16.500"  fill="#000000" text-anchor="start" font-size="0.80" font-family="monospace" font-style="normal" font-weight="400">
-insurances: List&lt;Insurance&gt;</text>
<rect x="29.000" y="20.000" width="10.510" height="2.800" fill="#FFFFFF" stroke="none" stroke-width="0"/>
<rect x="29.000" y="20.000" width="10.510" height="2.800" fill="none" stroke="#000000" stroke-width="0.100" />
<text x="34.255" y="20.950"  fill="#000000" text-anchor="middle" font-size="1.00" font-family="sans" font-style="normal" font-weight="700">
Insurance</text>
<text x="34.255" y="21.725"  fill="#000000" text-anchor="middle" font-size="0.70" font-family="sans" font-style="normal" font-weight="400">
Main Insurance</text>
<text x="34.255" y="22.425"  fill="#000000" text-anchor="middle" font-size="0.70" font-family="sans" font-style="normal" font-weight="400">
class</text>
<rect x="29.000" y="22.800" width="10.510" height="1.800" fill="#FFFFFF" stroke="none" stroke-width="0"/>
<rect x="29.000" y="22.800" width="10.510" height="1.800" fill="none" stroke="#000000" stroke-width="0.100" />
<text x="29.150" y="23.500"  fill="#000000" text-anchor="start" font-size="0.80" font-family="monospace" font-style="normal" font-weight="400">
-customer: Customer</text>
<text x="29.150" y="24.300"  fill="#000000" text-anchor="start" font-size="0.80" font-family="monospace" font-style="normal" font-weight="400">
-accidents: List&lt;Accident&gt;</text>
<rect x="29.000" y="27.000" width="7.815" height="2.800" fill="#FFFFFF" stroke="none" stroke-width="0"/>
<rect x="29.000" y="27.000" width="7.815" height="2.800" fill="none" stroke="#000000" stroke-width="0.100" />
<text x="32.907" y="27.950"  fill="#000000" text-anchor="middle" font-size="1.00" font-family="sans" font-style="normal" font-weight="700">
Accident</text>
<text x="32.907" y="28.725"  fill="#000000" text-anchor="middle" font-size="0.70" font-family="sans" font-style="normal" font-weight="400">
Main Accident</text>
<text x="32.907" y="29.425"  fill="#000000" text-anchor="middle" font-size="0.70" font-family="sans" font-style="normal" font-weight="400">
class</text>
<rect x="29.000" y="29.800" width="7.815" height="1.800" fill="#FFFFFF" stroke="none" stroke-width="0"/>
<rect x="29.000" y="29.800" width="7.815" height="1.800" fill="none" stroke="#000000" stroke-width="0.100" />
<text x="29.150" y="30.500"  fill="#000000" text-anchor="start" font-size="0.80" font-family="monospace" font-style="normal" font-weight="400">
-customer: Customer</text>
<text x="29.150" y="31.300"  fill="#000000" text-anchor="start" font-size="0.80" font-family="monospace" font-style="normal" font-weight="400">
-accident: Accident</text>
<rect x="49.000" y="14.000" width="9.847" height="1.800" fill="#FFFFFF" stroke="none" stroke-width="0"/>
<rect x="49.000" y="14.000" width="9.847" height="1.800" fill="none" stroke="#000000" stroke-width="0.100" />
<text x="53.924" y="15.095"  fill="#000000" text-anchor="middle" font-size="0.80" font-family="sans" font-style="normal" font-weight="400">
List&lt;Customer&gt; customers</text>
<line x1="49.500" y1="15.245" x2="58.347" y2="15.245" stroke="#000000" stroke-width="0.050" />
<rect x="49.000" y="21.000" width="9.995" height="1.800" fill="#FFFFFF" stroke="none" stroke-width="0"/>
<rect x="49.000" y="21.000" width="9.995" height="1.800" fill="none" stroke="#000000" stroke-width="0.100" />
<text x="53.998" y="22.095"  fill="#000000" text-anchor="middle" font-size="0.80" font-family="sans" font-style="normal" font-weight="400">
List&lt;Insurance&gt; insurances</text>
<line x1="49.500" y1="22.245" x2="58.495" y2="22.245" stroke="#000000" stroke-width="0.050" />
<rect x="49.000" y="28.000" width="9.227" height="1.800" fill="#FFFFFF" stroke="none" stroke-width="0"/>
<rect x="49.000" y="28.000" width="9.227" height="1.800" fill="none" stroke="#000000" stroke-width="0.100" />
<text x="53.614" y="29.095"  fill="#000000" text-anchor="middle" font-size="0.80" font-family="sans" font-style="normal" font-weight="400">
List&lt;Accident&gt; accidents</text>
<line x1="49.500" y1="29.245" x2="57.727" y2="29.245" stroke="#000000" stroke-width="0.050" />
<path stroke="#000000" fill="none" stroke-width="0.100"  d ="M 49.000,14.900 A 10.036,10.036 0 0,0 40.734,14.225 "/>
<polygon fill="#000000" stroke="none" stroke-width="0.100" points="40.383,14.357 40.749,13.935 40.730,14.214 40.941,14.397 "/>
<polygon fill="none" stroke="#000000" stroke-width="0.100"  points="40.383,14.357 40.749,13.935 40.730,14.214 40.941,14.397 "/>
<path stroke="#000000" fill="none" stroke-width="0.100"  d ="M 49.000,21.900 A 11.789,11.789 0 0,0 39.968,21.237 "/>
<polygon fill="#000000" stroke="none" stroke-width="0.100" points="39.615,21.360 39.994,20.949 39.965,21.228 40.171,21.417 "/>
<polygon fill="none" stroke="#000000" stroke-width="0.100"  points="39.615,21.360 39.994,20.949 39.965,21.228 40.171,21.417 "/>
<path stroke="#000000" fill="none" stroke-width="0.100"  d ="M 49.000,28.900 A 19.091,19.091 0 0,0 37.284,28.270 "/>
<polygon fill="#000000" stroke="none" stroke-width="0.100" points="36.922,28.369 37.332,27.989 37.282,28.264 37.472,28.468 "/>
<polygon fill="none" stroke="#000000" stroke-width="0.100"  points="36.922,28.369 37.332,27.989 37.282,28.264 37.472,28.468 "/>
<path stroke="#000000" fill="none" stroke-width="0.100"  d ="M 29.000,16.300 A 3.751,3.751 0 0,0 28.695,21.025 "/>
<polygon fill="#000000" stroke="none" stroke-width="0.100" points="28.924,21.318 28.401,21.121 28.669,21.043 28.767,20.781 "/>
<polygon fill="none" stroke="#000000" stroke-width="0.100"  points="28.924,21.318 28.401,21.121 28.669,21.043 28.767,20.781 "/>
<path stroke="#000000" fill="none" stroke-width="0.100"  d ="M 29.000,24.100 A 2.811,2.811 0 0,0 28.660,28.059 "/>
<polygon fill="#000000" stroke="none" stroke-width="0.100" points="28.914,28.328 28.371,28.197 28.628,28.086 28.693,27.815 "/>
<polygon fill="none" stroke="#000000" stroke-width="0.100"  points="28.914,28.328 28.371,28.197 28.628,28.086 28.693,27.815 "/>
<text x="31.000" y="9.000"  fill="#000000" text-anchor="start" font-size="2.54" font-family="sans" font-style="normal" font-weight="400">
Object Relation Map</text>
<path stroke="#000000" fill="none" stroke-width="0.100"  d ="M 28.560,14.604 A 4.800,4.800 0 0,0 29.000,23.300 "/>
<polygon fill="#000000" stroke="none" stroke-width="0.100" points="28.896,14.442 28.527,14.861 28.549,14.583 28.339,14.398 "/>
<polygon fill="none" stroke="#000000" stroke-width="0.100"  points="28.896,14.442 28.527,14.861 28.549,14.583 28.339,14.398 "/>
<path stroke="#000000" fill="none" stroke-width="0.100"  d ="M 28.576,21.636 A 5.420,5.420 0 0,0 29.000,31.100 "/>
<polygon fill="#000000" stroke="none" stroke-width="0.100" points="28.900,21.450 28.564,21.897 28.564,21.617 28.341,21.450 "/>
<polygon fill="none" stroke="#000000" stroke-width="0.100"  points="28.900,21.450 28.564,21.897 28.564,21.617 28.341,21.450 "/>
<path stroke="#000000" fill="none" stroke-width="0.100"  d ="M 28.568,14.623 A 8.820,8.820 0 0,0 29.000,30.300 "/>
<polygon fill="#000000" stroke="none" stroke-width="0.100" points="28.899,14.448 28.557,14.890 28.561,14.611 28.340,14.440 "/>
<polygon fill="none" stroke="#000000" stroke-width="0.100"  points="28.899,14.448 28.557,14.890 28.561,14.611 28.340,14.440 "/>
</svg>